<svg  viewBox="0 0 65 52" fill="inherit" xmlns="http://www.w3.org/2000/svg">
<line x1="1.5" y1="-1.5" x2="21.791" y2="-1.5" transform="matrix(-0.836701 0.54766 -0.607674 -0.794187 32.4875 0)" stroke="white" stroke-width="3" stroke-linecap="round"/>
<line x1="1.5" y1="-1.5" x2="21.791" y2="-1.5" transform="matrix(0.836701 0.54766 0.607674 -0.794187 32.0125 0)" stroke="white" stroke-width="3" stroke-linecap="round"/>
<line x1="1.5" y1="-1.5" x2="21.791" y2="-1.5" transform="matrix(-0.836701 0.54766 -0.607674 -0.794187 32.4875 6)" stroke="white" stroke-width="3" stroke-linecap="round"/>
<line x1="1.5" y1="-1.5" x2="21.791" y2="-1.5" transform="matrix(0.836701 0.54766 0.607674 -0.794187 32.0125 6)" stroke="white" stroke-width="3" stroke-linecap="round"/>
<path d="M19.966 40H16.946V28.24H13.066V25.72H23.846V28.24H19.966V40ZM38.6174 32.84C38.6174 33.9467 38.4774 34.9533 38.1974 35.86C37.9308 36.7533 37.5174 37.5267 36.9574 38.18C36.4108 38.8333 35.7041 39.3333 34.8374 39.68C33.9841 40.0267 32.9774 40.2 31.8174 40.2C30.6574 40.2 29.6441 40.0267 28.7774 39.68C27.9241 39.32 27.2174 38.82 26.6574 38.18C26.1108 37.5267 25.6974 36.7467 25.4174 35.84C25.1508 34.9333 25.0174 33.9267 25.0174 32.82C25.0174 31.34 25.2574 30.0533 25.7374 28.96C26.2308 27.8667 26.9774 27.02 27.9774 26.42C28.9908 25.8067 30.2774 25.5 31.8374 25.5C33.3841 25.5 34.6574 25.8067 35.6574 26.42C36.6574 27.02 37.3974 27.8733 37.8774 28.98C38.3708 30.0733 38.6174 31.36 38.6174 32.84ZM28.1974 32.84C28.1974 33.84 28.3241 34.7 28.5774 35.42C28.8308 36.14 29.2241 36.6933 29.7574 37.08C30.2908 37.4667 30.9774 37.66 31.8174 37.66C32.6841 37.66 33.3774 37.4667 33.8974 37.08C34.4308 36.6933 34.8174 36.14 35.0574 35.42C35.3108 34.7 35.4374 33.84 35.4374 32.84C35.4374 31.3333 35.1574 30.1533 34.5974 29.3C34.0374 28.4467 33.1174 28.02 31.8374 28.02C30.9841 28.02 30.2908 28.2133 29.7574 28.6C29.2241 28.9867 28.8308 29.54 28.5774 30.26C28.3241 30.98 28.1974 31.84 28.1974 32.84ZM46.1354 25.72C47.9754 25.72 49.3154 26.12 50.1554 26.92C51.0087 27.7067 51.4354 28.7933 51.4354 30.18C51.4354 30.8067 51.3421 31.4067 51.1554 31.98C50.9687 32.54 50.6554 33.0467 50.2154 33.5C49.7887 33.94 49.2221 34.2867 48.5154 34.54C47.8087 34.7933 46.9354 34.92 45.8954 34.92H44.5954V40H41.5754V25.72H46.1354ZM45.9754 28.2H44.5954V32.44H45.5954C46.1687 32.44 46.6621 32.3667 47.0754 32.22C47.4887 32.0733 47.8087 31.84 48.0354 31.52C48.2621 31.2 48.3754 30.7867 48.3754 30.28C48.3754 29.5733 48.1821 29.0533 47.7954 28.72C47.4087 28.3733 46.8021 28.2 45.9754 28.2Z" fill="white"/>
</svg>
