<svg  viewBox="0 0 294 294" fill="none" xmlns="http://www.w3.org/2000/svg">
<rect x="14" y="14" width="280" height="280" rx="140" fill="#EFF0F3"/>
<path d="M71.2051 290.032C71.2051 249.387 104.154 216.437 144.799 216.437C185.444 216.437 218.394 249.387 218.394 290.032V293.711H71.2051V290.032Z" fill="#B4B4B4"/>
<path d="M84.084 290.032C84.084 249.387 117.033 216.437 157.678 216.437C198.323 216.437 231.273 249.387 231.273 290.032V293.711H84.084V290.032Z" fill="#ABABAB"/>
<circle cx="139.281" cy="126.285" r="27.5979" fill="#575757"/>
<circle cx="113.522" cy="144.683" r="27.5979" fill="#575757"/>
<circle cx="179.758" cy="135.484" r="40.4769" fill="#575757"/>
<circle cx="196.317" cy="175.961" r="40.4769" fill="#575757"/>
<circle cx="142.039" cy="184.241" r="54.2758" fill="#D9D9D9"/>
<circle cx="110.762" cy="156.643" r="2.75979" fill="#575757"/>
<circle cx="129.16" cy="156.643" r="2.75979" fill="#575757"/>
<circle cx="172.399" cy="144.683" r="27.5979" fill="#575757"/>
<circle cx="195.397" cy="171.362" r="19.3185" fill="#575757"/>
<rect x="100.643" y="113.406" width="49.6761" height="25.758" rx="12.879" fill="#ABABAB"/>
<circle cx="137.441" cy="126.285" r="11.0391" fill="#D9D9D9"/>
<path d="M113.523 166.763H122.723" stroke="#575757" stroke-width="3.67971" stroke-linecap="round"/>
<path d="M121.182 198.373C127.069 224.131 150.62 237.316 161.659 240.69C202.136 266.448 156.14 306.924 121.182 280.246C86.2243 253.569 86.2243 216.438 86.2246 198.373C86.2249 181.41 113.822 166.175 121.182 198.373Z" fill="#ABABAB"/>
<path d="M107.072 204.309C110.633 222.922 128.002 245.279 134.68 247.716C142.545 253.695 172.451 260.822 171.477 267.035C170.151 275.497 140.717 283.288 131.559 283.593C126.506 283.762 112.176 271.687 107.072 267.035C85.9236 247.756 85.9236 217.363 85.9238 204.309C85.924 192.051 102.62 181.041 107.072 204.309Z" fill="url(#paint0_linear_6413_16562)"/>
<circle cx="50.5" cy="50.5" r="50.5" fill="#575757"/>
<path d="M91.5385 107.537L62.0202 87.2045L71.2058 78.0189L91.5385 107.537Z" fill="#575757"/>
<path d="M47.0359 22C48.5755 19.3333 52.4245 19.3333 53.9641 22L76.9138 61.75C78.4534 64.4167 76.5289 67.75 73.4497 67.75H27.5503C24.4711 67.75 22.5466 64.4167 24.0862 61.75L47.0359 22Z" fill="#D9D9D9"/>
<path d="M48.3304 38.4781C48.1555 37.1659 49.1762 36 50.5 36C51.8238 36 52.8445 37.1659 52.6696 38.4781L51 51H50L48.3304 38.4781Z" fill="#959595"/>
<rect x="48" y="55" width="5" height="5" rx="2.5" fill="#959595"/>
<defs>
<linearGradient id="paint0_linear_6413_16562" x1="113.522" y1="269.795" x2="113.522" y2="190.681" gradientUnits="userSpaceOnUse">
<stop stop-color="#ABABAB"/>
<stop offset="1" stop-color="#929292"/>
</linearGradient>
</defs>
</svg>
