<svg viewBox="0 0 30 30" fill="currentColor" xmlns="http://www.w3.org/2000/svg">
  <path d="M14.2468 11.2775C11.9056 11.2775 9.9450 13.1881 9.9450 15.5294C9.9450 17.8706 11.9056 19.7812 14.2468 19.7812C16.5881 19.7812 18.4986 17.8706 18.4986 15.5294C18.4986 13.1881 16.5881 11.2775 14.2468 11.2775ZM26.9990 15.5294C26.9990 13.7686 27.0150 12.0239 26.9161 10.2665C26.8172 8.2250 26.3515 6.4133 24.8588 4.9206C23.3629 3.4246 21.5543 2.9621 19.5129 2.8632C17.4898 2.7645 15.7575 2.7803 14.2500 2.7803C12.4893 2.7803 10.7445 2.7645 9.2372 2.8632C6.6397 2.9621 5.1340 3.4278 3.6412 4.9206C2.1450 6.4166 1.6828 8.2250 1.5839 10.2665C1.4850 12.0271 1.5009 13.7710 1.5009 15.5294C1.5009 17.2868 1.4850 19.0348 1.5839 20.7923C1.6828 23.1337 2.1485 25.6454 3.6412 26.6382C5.1372 28.1341 6.9456 28.0965 9.2372 28.1955C10.7477 28.2944 12.4925 28.2684 14.2500 28.2684C16.0107 28.2684 17.7560 28.2944 19.5129 28.1955C21.5543 28.0965 23.3660 27.6309 24.8588 26.6382C26.3548 25.6422 26.8172 23.1337 26.9161 20.7923C27.0182 19.0348 26.9990 17.2901 26.9990 15.5294V15.5294ZM14.2468 21.3214C10.6265 21.3214 7.7048 18.8996 7.7048 15.5294C7.7048 12.1592 10.6265 9.7375 14.2468 9.7375C17.8670 9.7375 20.7897 12.1592 20.7897 15.5294C20.7897 18.8996 17.8670 21.3214 14.2468 21.3214ZM21.0567 9.9973C20.2114 9.9973 19.5289 9.5647 19.5289 8.7194C19.5289 7.8741 20.2114 7.1916 21.0567 7.1916C21.9019 7.1916 22.5844 7.8741 22.5844 8.7194C22.5848 8.4191 22.5455 8.3689 22.4688 8.1044C22.3910 7.8394 22.2796 7.6585 22.1376 7.9003C21.9957 8.1421 21.8872 8.5548 21.6417 8.6315C21.4562 8.7082 21.2574 8.5551 21.0567 9.9973V9.9973Z" fill="currentColor"/>
</svg>
