<svg width="150" height="60" viewBox="0 0 71 17" fill="none" xmlns="http://www.w3.org/2000/svg">
<path d="M0.599902 16.084C0.489445 16.084 0.399902 15.9945 0.399902 15.884V0.819361C0.399902 0.708904 0.489445 0.619361 0.599902 0.619361H2.64048C2.71092 0.619361 2.77617 0.65642 2.81225 0.716922L9.30618 11.6061C9.38569 11.7395 9.28963 11.9086 9.13441 11.9086H8.60366C8.44908 11.9086 8.35294 11.7407 8.43115 11.6074L14.819 0.718164C14.8549 0.65696 14.9205 0.619361 14.9915 0.619361H17.0314C17.1417 0.619361 17.2312 0.708731 17.2314 0.819077L17.2528 15.8838C17.253 15.9943 17.1634 16.084 17.0528 16.084H14.7465C14.6362 16.084 14.5467 15.9947 14.5465 15.8844L14.5253 5.08359C14.5251 4.97298 14.6147 4.8832 14.7253 4.8832H14.7446C14.8999 4.8832 14.9959 5.05241 14.9163 5.18572L9.52274 14.2192C9.48665 14.2796 9.42143 14.3166 9.35102 14.3166H8.30108C8.23116 14.3166 8.16631 14.2801 8.13006 14.2204L2.65221 5.1869C2.57139 5.05361 2.66735 4.8832 2.82323 4.8832H2.9281C3.03855 4.8832 3.1281 4.97274 3.1281 5.0832V15.884C3.1281 15.9945 3.03855 16.084 2.9281 16.084H0.599902Z" fill="#F1F1F5"/>
<path d="M28.4096 16.305C27.2069 16.305 26.0994 16.1061 25.0874 15.7085C24.0753 15.3108 23.1952 14.7585 22.4472 14.0515C21.6991 13.3299 21.1198 12.4903 20.7091 11.533C20.2984 10.5609 20.093 9.50051 20.093 8.3517C20.093 7.2029 20.2984 6.14983 20.7091 5.19249C21.1198 4.22042 21.6991 3.38091 22.4472 2.67395C23.1952 1.95227 24.0753 1.3926 25.0874 0.994933C26.0994 0.597269 27.1995 0.398438 28.3876 0.398438C29.5904 0.398438 30.6904 0.597269 31.6878 0.994933C32.6999 1.3926 33.58 1.95227 34.328 2.67395C35.0761 3.38091 35.6555 4.22042 36.0662 5.19249C36.4769 6.14983 36.6822 7.2029 36.6822 8.3517C36.6822 9.50051 36.4769 10.5609 36.0662 11.533C35.6555 12.5051 35.0761 13.3446 34.328 14.0515C33.58 14.7585 32.6999 15.3108 31.6878 15.7085C30.6904 16.1061 29.5977 16.305 28.4096 16.305ZM28.3876 13.7864C29.165 13.7864 29.8837 13.6539 30.5438 13.3888C31.2038 13.1237 31.7759 12.7481 32.2599 12.2621C32.7439 11.7613 33.1179 11.1869 33.382 10.5388C33.6606 9.87608 33.8 9.14703 33.8 8.3517C33.8 7.55638 33.6606 6.83469 33.382 6.18665C33.1179 5.52387 32.7439 4.94947 32.2599 4.46344C31.7759 3.96268 31.2038 3.57974 30.5438 3.31463C29.8837 3.04953 29.165 2.91697 28.3876 2.91697C27.6102 2.91697 26.8915 3.04953 26.2315 3.31463C25.5861 3.57974 25.014 3.96268 24.5153 4.46344C24.0313 4.94947 23.6499 5.52387 23.3713 6.18665C23.1072 6.83469 22.9752 7.55638 22.9752 8.3517C22.9752 9.1323 23.1072 9.85399 23.3713 10.5168C23.6499 11.1795 24.0313 11.7613 24.5153 12.2621C24.9994 12.7481 25.5714 13.1237 26.2315 13.3888C26.8915 13.6539 27.6102 13.7864 28.3876 13.7864Z" fill="#F1F1F5"/>
<path d="M46.6884 16.305C45.4857 16.305 44.3783 16.1135 43.3662 15.7306C42.3688 15.3329 41.4961 14.7806 40.748 14.0736C40 13.3519 39.4206 12.5051 39.0099 11.533C38.5992 10.5609 38.3939 9.50051 38.3939 8.3517C38.3939 7.2029 38.5992 6.14246 39.0099 5.1704C39.4206 4.19833 40 3.35882 40.748 2.65186C41.5107 1.93018 42.3981 1.37787 43.4102 0.994933C44.4223 0.597269 45.5297 0.398438 46.7324 0.398438C48.0379 0.398438 49.2113 0.611997 50.2527 1.03912C51.2479 1.44163 52.0934 2.02074 52.789 2.77643C52.8608 2.85436 52.8558 2.97487 52.7801 3.049L51.2525 4.54555C51.174 4.6224 51.0484 4.62135 50.9688 4.54574C50.407 4.01242 49.8016 3.61678 49.1526 3.35882C48.4632 3.06425 47.7005 2.91697 46.8645 2.91697C46.0577 2.91697 45.3097 3.04953 44.6203 3.31463C43.9309 3.57974 43.3369 3.95531 42.8382 4.44135C42.3395 4.92738 41.9508 5.50178 41.6721 6.16455C41.4081 6.82733 41.2761 7.55638 41.2761 8.3517C41.2761 9.1323 41.4081 9.85399 41.6721 10.5168C41.9508 11.1795 42.3395 11.7613 42.8382 12.2621C43.3369 12.7481 43.9236 13.1237 44.5983 13.3888C45.273 13.6539 46.0211 13.7864 46.8425 13.7864C47.6052 13.7864 48.3386 13.6686 49.0426 13.433C49.7009 13.2036 50.3285 12.8384 50.9252 12.3372C51.0145 12.2622 51.149 12.2751 51.2195 12.3679L52.5991 14.1837C52.6647 14.27 52.6497 14.393 52.5636 14.4588C51.792 15.048 50.9043 15.5014 49.9007 15.8189C48.8446 16.143 47.7739 16.305 46.6884 16.305ZM50.1832 13.9871C50.0843 13.9734 50.0107 13.8888 50.0107 13.789V8.37496C50.0107 8.26451 50.1002 8.17496 50.2107 8.17496H52.5169C52.6273 8.17496 52.7169 8.26451 52.7169 8.37496V14.1091C52.7169 14.2305 52.6096 14.3239 52.4894 14.3072L50.1832 13.9871Z" fill="#F1F1F5"/>
<path d="M54.3999 16.084C54.2549 16.084 54.1581 15.9346 54.2174 15.8022L60.9686 0.73757C61.0009 0.665648 61.0723 0.619361 61.1511 0.619361H63.7084C63.7872 0.619361 63.8586 0.665548 63.8908 0.737353L70.6635 15.802C70.723 15.9344 70.6262 16.084 70.4811 16.084H67.9301C67.85 16.084 67.7777 16.0363 67.7462 15.9627L61.9548 2.42239C61.8984 2.29043 61.9952 2.14374 62.1387 2.14374H62.6771C62.8205 2.14374 62.9173 2.29021 62.8611 2.42214L57.0911 15.9624C57.0597 16.0362 56.9873 16.084 56.9071 16.084H54.3999ZM57.561 12.5051C57.4239 12.5051 57.3274 12.3702 57.3718 12.2404L58.0051 10.387C58.0328 10.306 58.1089 10.2516 58.1944 10.2516H66.225C66.3105 10.2516 66.3866 10.306 66.4142 10.387L67.0476 12.2404C67.0919 12.3702 66.9955 12.5051 66.8583 12.5051H57.561Z" fill="#F1F1F5"/>
</svg>
