<svg viewBox="0 0 41 33" fill="none" xmlns="http://www.w3.org/2000/svg">
<path fill-rule="evenodd" clip-rule="evenodd" d="M2.8999 0C1.79533 0 0.899902 0.895432 0.899902 2V24.3969C0.899902 25.5015 1.79533 26.3969 2.8999 26.3969H31.6996L38.4653 31.9435C39.118 32.4787 40.0992 32.0143 40.0993 31.1702L40.0996 24.4331C40.0998 24.4211 40.0999 24.409 40.0999 24.3969V2C40.0999 0.895431 39.2045 0 38.0999 0H2.8999Z" fill="#6E6E82"/>
<path fill-rule="evenodd" clip-rule="evenodd" d="M8.73857 11.478C9.29086 11.478 9.73857 11.9257 9.73857 12.478V13.0274C9.73857 14.2442 10.5887 15.6323 12.5779 16.8018C14.5294 17.9491 17.3266 18.7085 20.4994 18.7085C23.6721 18.7085 26.4693 17.9491 28.4208 16.8018C30.41 15.6323 31.2601 14.2442 31.2601 13.0274V12.478C31.2601 11.9257 31.7079 11.478 32.2601 11.478H33.3346C33.8869 11.478 34.3346 11.9257 34.3346 12.478V13.0274C34.3346 15.8039 32.4318 18.0311 29.97 19.4784C27.4704 20.948 24.1186 21.8073 20.4994 21.8073C16.8801 21.8073 13.5283 20.948 11.0288 19.4784C8.56694 18.0311 6.66406 15.8039 6.66406 13.0274V12.478C6.66406 11.9257 7.11178 11.478 7.66406 11.478H8.73857Z" fill="#1C1C22"/>
</svg>
