<svg width="180" height="60" viewBox="0 0 48 17" fill="none" xmlns="http://www.w3.org/2000/svg">
<path d="M0.230273 16.084C0.119816 16.084 0.0302734 15.9945 0.0302734 15.884V14.2332C0.0302734 14.1872 0.0461694 14.1425 0.0752765 14.1068L9.73802 2.25758C9.83913 2.13359 10.0377 2.17262 10.0843 2.32565L10.2263 2.7912C10.2654 2.91971 10.1693 3.04953 10.0349 3.04953H0.384284C0.273827 3.04953 0.184284 2.95998 0.184284 2.84953V0.819361C0.184284 0.708904 0.273827 0.619361 0.384284 0.619361H12.6792C12.7896 0.619361 12.8792 0.708904 12.8792 0.819361V2.47019C12.8792 2.51625 12.8633 2.56089 12.8342 2.59659L3.16626 14.4522C3.0662 14.5749 2.87002 14.5382 2.82106 14.3876L2.66761 13.9157C2.62558 13.7865 2.72191 13.6539 2.8578 13.6539H12.9652C13.0757 13.6539 13.1652 13.7434 13.1652 13.8539V15.884C13.1652 15.9945 13.0757 16.084 12.9652 16.084H0.230273Z" fill="url(#paint0_linear_8776_25962)"/>
<path d="M22.6099 16.305C21.4071 16.305 20.2997 16.1061 19.2877 15.7085C18.2756 15.3108 17.3955 14.7585 16.6475 14.0515C15.8994 13.3299 15.32 12.4903 14.9093 11.533C14.4987 10.5609 14.2933 9.50051 14.2933 8.3517C14.2933 7.2029 14.4987 6.14983 14.9093 5.19249C15.32 4.22042 15.8994 3.38091 16.6475 2.67395C17.3955 1.95227 18.2756 1.3926 19.2877 0.994933C20.2997 0.597269 21.3998 0.398438 22.5879 0.398438C23.7906 0.398438 24.8907 0.597269 25.8881 0.994933C26.9002 1.3926 27.7803 1.95227 28.5283 2.67395C29.2764 3.38091 29.8557 4.22042 30.2664 5.19249C30.6771 6.14983 30.8825 7.2029 30.8825 8.3517C30.8825 9.50051 30.6771 10.5609 30.2664 11.533C29.8557 12.5051 29.2764 13.3446 28.5283 14.0515C27.7803 14.7585 26.9002 15.3108 25.8881 15.7085C24.8907 16.1061 23.798 16.305 22.6099 16.305ZM22.5879 13.7864C23.3653 13.7864 24.084 13.6539 24.744 13.3888C25.4041 13.1237 25.9761 12.7481 26.4602 12.2621C26.9442 11.7613 27.3182 11.1869 27.5822 10.5388C27.8609 9.87608 28.0003 9.14703 28.0003 8.3517C28.0003 7.55638 27.8609 6.83469 27.5822 6.18665C27.3182 5.52387 26.9442 4.94947 26.4602 4.46344C25.9761 3.96268 25.4041 3.57974 24.744 3.31463C24.084 3.04953 23.3653 2.91697 22.5879 2.91697C21.8105 2.91697 21.0918 3.04953 20.4317 3.31463C19.7864 3.57974 19.2143 3.96268 18.7156 4.46344C18.2316 4.94947 17.8502 5.52387 17.5715 6.18665C17.3075 6.83469 17.1755 7.55638 17.1755 8.3517C17.1755 9.1323 17.3075 9.85399 17.5715 10.5168C17.8502 11.1795 18.2316 11.7613 18.7156 12.2621C19.1997 12.7481 19.7717 13.1237 20.4317 13.3888C21.0918 13.6539 21.8105 13.7864 22.5879 13.7864Z" fill="url(#paint1_linear_8776_25962)"/>
<path d="M31.61 16.084C31.465 16.084 31.3682 15.9346 31.4275 15.8022L38.1787 0.73757C38.211 0.665648 38.2824 0.619361 38.3612 0.619361H40.9185C40.9973 0.619361 41.0687 0.665548 41.1009 0.737353L47.8736 15.802C47.9331 15.9344 47.8363 16.084 47.6912 16.084H45.1402C45.0601 16.084 44.9878 16.0363 44.9563 15.9627L39.1649 2.42239C39.1085 2.29043 39.2053 2.14374 39.3488 2.14374H39.8872C40.0306 2.14374 40.1274 2.29021 40.0712 2.42214L34.3012 15.9624C34.2698 16.0362 34.1974 16.084 34.1172 16.084H31.61ZM34.7711 12.5051C34.634 12.5051 34.5375 12.3702 34.5819 12.2404L35.2152 10.387C35.2429 10.306 35.319 10.2516 35.4045 10.2516H43.4351C43.5206 10.2516 43.5967 10.306 43.6243 10.387L44.2577 12.2404C44.302 12.3702 44.2056 12.5051 44.0684 12.5051H34.7711Z" fill="url(#paint2_linear_8776_25962)"/>
<defs>
<linearGradient id="paint0_linear_8776_25962" x1="0.0302734" y1="0.398438" x2="48.7947" y2="3.39969" gradientUnits="userSpaceOnUse">
<stop stop-color="#5097FA"/>
<stop offset="1" stop-color="#5363FF"/>
</linearGradient>
<linearGradient id="paint1_linear_8776_25962" x1="0.0302734" y1="0.398438" x2="48.7947" y2="3.39969" gradientUnits="userSpaceOnUse">
<stop stop-color="#5097FA"/>
<stop offset="1" stop-color="#5363FF"/>
</linearGradient>
<linearGradient id="paint2_linear_8776_25962" x1="0.0302734" y1="0.398438" x2="48.7947" y2="3.39969" gradientUnits="userSpaceOnUse">
<stop stop-color="#5097FA"/>
<stop offset="1" stop-color="#5363FF"/>
</linearGradient>
</defs>
</svg>
