<svg width="18" height="19" viewBox="0 0 18 19" fill="none" xmlns="http://www.w3.org/2000/svg">
<path d="M13.5008 16.8125C12.9281 16.8125 12.4411 16.612 12.0397 16.2109C11.6382 15.8099 11.4375 15.3229 11.4375 14.75C11.4375 14.6564 11.445 14.5594 11.4599 14.4591C11.4748 14.3588 11.4971 14.2663 11.5269 14.1817L5.97979 10.9336C5.78171 11.1307 5.55623 11.2848 5.30334 11.3959C5.05046 11.5069 4.78267 11.5625 4.49998 11.5625C3.92707 11.5625 3.44009 11.362 3.03906 10.9612C2.63802 10.5603 2.4375 10.0735 2.4375 9.50083C2.4375 8.92815 2.63802 8.44109 3.03906 8.03966C3.44009 7.63822 3.92707 7.4375 4.49998 7.4375C4.78267 7.4375 5.05046 7.49303 5.30334 7.60408C5.55623 7.71514 5.78171 7.86923 5.97979 8.06634L11.5269 4.81826C11.4971 4.73364 11.4748 4.64118 11.4599 4.54087C11.445 4.44057 11.4375 4.34361 11.4375 4.24998C11.4375 3.67707 11.6379 3.19009 12.0388 2.78906C12.4397 2.38802 12.9265 2.1875 13.4991 2.1875C14.0718 2.1875 14.5589 2.38794 14.9603 2.78881C15.3617 3.18969 15.5625 3.67646 15.5625 4.24914C15.5625 4.82181 15.3619 5.30887 14.9609 5.71031C14.5599 6.11174 14.0729 6.31246 13.5 6.31246C13.2173 6.31246 12.9495 6.25694 12.6966 6.14589C12.4437 6.03483 12.2183 5.88074 12.0202 5.68363L6.47304 8.93171C6.50286 9.01632 6.52521 9.10861 6.54011 9.20859C6.55501 9.30855 6.56246 9.40518 6.56246 9.49848C6.56246 9.59179 6.55501 9.68893 6.54011 9.78989C6.52521 9.89086 6.50286 9.98364 6.47304 10.0683L12.0202 13.3163C12.2183 13.1192 12.4437 12.9651 12.6966 12.8541C12.9495 12.743 13.2173 12.6875 13.5 12.6875C14.0729 12.6875 14.5599 12.8879 14.9609 13.2888C15.3619 13.6897 15.5625 14.1765 15.5625 14.7491C15.5625 15.3218 15.362 15.8089 14.9612 16.2103C14.5603 16.6117 14.0735 16.8125 13.5008 16.8125Z" fill="#6E6E82"/>
</svg>
