<svg width="14" height="15" viewBox="0 0 14 15" fill="none" xmlns="http://www.w3.org/2000/svg">
<path d="M10.5006 13.1875C10.0551 13.1875 9.67633 13.0315 9.3641 12.7196C9.05187 12.4077 8.89575 12.0289 8.89575 11.5833C8.89575 11.5105 8.90155 11.4351 8.91314 11.3571C8.92472 11.2791 8.94211 11.2071 8.9653 11.1413L4.65086 8.61504C4.49681 8.76835 4.32143 8.8882 4.12474 8.97458C3.92805 9.06095 3.71977 9.10414 3.4999 9.10414C3.05431 9.10414 2.67555 8.94824 2.36363 8.63645C2.05171 8.32466 1.89575 7.94606 1.89575 7.50064C1.89575 7.05523 2.05171 6.67641 2.36363 6.36418C2.67555 6.05195 3.05431 5.89583 3.4999 5.89583C3.71977 5.89583 3.92805 5.93902 4.12474 6.02539C4.32143 6.11177 4.49681 6.23162 4.65086 6.38493L8.9653 3.85864C8.94211 3.79283 8.92472 3.72092 8.91314 3.6429C8.90155 3.56489 8.89575 3.48947 8.89575 3.41665C8.89575 2.97105 9.05165 2.5923 9.36344 2.28038C9.67523 1.96846 10.0538 1.8125 10.4992 1.8125C10.9447 1.8125 11.3235 1.9684 11.6357 2.28019C11.9479 2.59198 12.1041 2.97058 12.1041 3.416C12.1041 3.86141 11.9481 4.24023 11.6362 4.55246C11.3243 4.86469 10.9455 5.0208 10.4999 5.0208C10.28 5.0208 10.0718 4.97762 9.87507 4.89125C9.67838 4.80486 9.503 4.68502 9.34894 4.53171L5.03451 7.05799C5.0577 7.1238 5.07508 7.19559 5.08667 7.27335C5.09826 7.3511 5.10406 7.42625 5.10406 7.49882C5.10406 7.5714 5.09826 7.64695 5.08667 7.72547C5.07508 7.804 5.0577 7.87617 5.03451 7.94198L9.34894 10.4683C9.503 10.315 9.67838 10.1951 9.87507 10.1087C10.0718 10.0224 10.28 9.97917 10.4999 9.97917C10.9455 9.97917 11.3243 10.1351 11.6362 10.4469C11.9481 10.7586 12.1041 11.1372 12.1041 11.5827C12.1041 12.0281 11.9482 12.4069 11.6364 12.7191C11.3246 13.0314 10.946 13.1875 10.5006 13.1875Z" fill="#6E6E82"/>
</svg>
