<svg width="21" height="20" viewBox="0 0 21 20" fill="none" xmlns="http://www.w3.org/2000/svg">
<path d="M5.53172 14.5835L3.86347 16.2517C3.62629 16.4889 3.35358 16.5426 3.04536 16.4127C2.73713 16.2829 2.58301 16.0492 2.58301 15.7116V3.58991C2.58301 3.16897 2.72884 2.81266 3.02051 2.521C3.31217 2.22933 3.66848 2.0835 4.08942 2.0835H16.9099C17.3308 2.0835 17.6871 2.22933 17.9788 2.521C18.2705 2.81266 18.4163 3.16897 18.4163 3.58991V13.077C18.4163 13.498 18.2705 13.8543 17.9788 14.146C17.6871 14.4376 17.3308 14.5835 16.9099 14.5835H5.53172Z" fill="url(#paint0_linear_7964_4430)"/>
<defs>
<linearGradient id="paint0_linear_7964_4430" x1="2.58301" y1="2.0835" x2="18.7313" y2="2.4459" gradientUnits="userSpaceOnUse">
<stop stop-color="#5097FA"/>
<stop offset="1" stop-color="#5363FF"/>
</linearGradient>
</defs>
</svg>
