<svg width="16" height="16" viewBox="0 0 16 16" fill="none" xmlns="http://www.w3.org/2000/svg">
<path d="M7.99998 9.22871L2.08137 15.1473C1.91984 15.3088 1.7168 15.3915 1.47225 15.3952C1.22772 15.399 1.02095 15.3163 0.851934 15.1473C0.682904 14.9783 0.598389 14.7734 0.598389 14.5326C0.598389 14.2918 0.682904 14.0869 0.851934 13.9179L6.77052 7.99925L0.851934 2.08063C0.69039 1.91911 0.607751 1.71607 0.604018 1.47152C0.600265 1.22699 0.682904 1.02021 0.851934 0.851202C1.02095 0.682171 1.22585 0.597656 1.46665 0.597656C1.70745 0.597656 1.91236 0.682171 2.08137 0.851202L7.99998 6.76979L13.9186 0.851202C14.0801 0.689657 14.2832 0.607019 14.5277 0.603285C14.7723 0.599532 14.979 0.682171 15.148 0.851202C15.3171 1.02021 15.4016 1.22512 15.4016 1.46592C15.4016 1.70672 15.3171 1.91162 15.148 2.08063L9.22945 7.99925L15.148 13.9179C15.3096 14.0794 15.3922 14.2824 15.396 14.527C15.3997 14.7715 15.3171 14.9783 15.148 15.1473C14.979 15.3163 14.7741 15.4008 14.5333 15.4008C14.2925 15.4008 14.0876 15.3163 13.9186 15.1473L7.99998 9.22871Z" fill="#F1F1F5"/>
</svg>
