<svg width="24" height="25" viewBox="0 0 24 25" fill="none" xmlns="http://www.w3.org/2000/svg">
<path d="M6.03845 17.9999L4.03655 20.0019C3.75193 20.2864 3.42469 20.3509 3.05483 20.1951C2.68494 20.0393 2.5 19.7589 2.5 19.3538V4.8077C2.5 4.30257 2.675 3.875 3.025 3.525C3.375 3.175 3.80257 3 4.3077 3H19.6923C20.1974 3 20.625 3.175 20.975 3.525C21.325 3.875 21.5 4.30257 21.5 4.8077V16.1923C21.5 16.6974 21.325 17.125 20.975 17.4749C20.625 17.825 20.1974 17.9999 19.6923 17.9999H6.03845Z" fill="url(#paint0_linear_7964_9078)"/>
<defs>
<linearGradient id="paint0_linear_7964_9078" x1="2.5" y1="3" x2="21.8779" y2="3.43489" gradientUnits="userSpaceOnUse">
<stop stop-color="#5097FA"/>
<stop offset="1" stop-color="#5363FF"/>
</linearGradient>
</defs>
</svg>
