<svg width="14" height="15" viewBox="0 0 14 15" fill="none" xmlns="http://www.w3.org/2000/svg">
<path fill-rule="evenodd" clip-rule="evenodd" d="M5.85829 11.3752C6.23602 11.4342 6.61777 11.4638 7.00008 11.4636C10.2217 11.4636 12.8334 9.40112 12.8334 6.85683C12.8334 4.31253 10.2217 2.25 7.00008 2.25C3.7785 2.25 1.16675 4.31253 1.16675 6.85683C1.16675 8.49303 2.24697 9.92982 3.87479 10.7471L3.32676 12.8358C3.31916 12.8648 3.32063 12.8954 3.33098 12.9235C3.34133 12.9516 3.36006 12.9758 3.38463 12.9929C3.4092 13.01 3.43842 13.0191 3.46836 13.0191C3.49829 13.019 3.52748 13.0098 3.55199 12.9926L5.85829 11.3752Z" fill="#6E6E82"/>
</svg>
