<svg width="21" height="20" viewBox="0 0 21 20" fill="none" xmlns="http://www.w3.org/2000/svg">
<path d="M10.4916 16.4246C10.3132 16.4246 10.134 16.3926 9.95399 16.3285C9.77396 16.2644 9.61557 16.1639 9.47882 16.0272L8.28174 14.9391C6.80417 13.5918 5.48499 12.2684 4.3242 10.9687C3.1634 9.66903 2.58301 8.27667 2.58301 6.79165C2.58301 5.60897 2.98178 4.61885 3.77932 3.82131C4.57686 3.02377 5.56697 2.625 6.74965 2.625C7.42165 2.625 8.08538 2.77992 8.74084 3.08975C9.39629 3.39958 9.98256 3.90279 10.4997 4.59938C11.0168 3.90279 11.603 3.39958 12.2585 3.08975C12.9139 2.77992 13.5777 2.625 14.2497 2.625C15.4323 2.625 16.4224 3.02377 17.22 3.82131C18.0175 4.61885 18.4163 5.60897 18.4163 6.79165C18.4163 8.2927 17.826 9.70055 16.6455 11.0152C15.4649 12.3298 14.1487 13.6421 12.6967 14.9519L11.5125 16.0272C11.3757 16.1639 11.216 16.2644 11.0333 16.3285C10.8506 16.3926 10.67 16.4246 10.4916 16.4246Z" fill="#FF0000"/>
</svg>
