<svg width="20" height="20" viewBox="0 0 20 20" fill="none" xmlns="http://www.w3.org/2000/svg">
<path d="M10.0003 14.8503L5.78612 17.3817C5.62919 17.473 5.47192 17.5114 5.31431 17.4969C5.15668 17.4823 5.01398 17.4294 4.88622 17.3381C4.75847 17.2468 4.65987 17.1275 4.59044 16.9802C4.52098 16.8329 4.50987 16.67 4.5571 16.4916L5.67573 11.7255L1.95524 8.51775C1.81637 8.39741 1.72784 8.25806 1.68966 8.09969C1.65147 7.9413 1.66154 7.78741 1.71985 7.63803C1.77818 7.48863 1.86221 7.36656 1.97192 7.27181C2.08164 7.17706 2.23162 7.11516 2.42187 7.08612L7.33185 6.6587L9.23791 2.15824C9.30735 1.99087 9.41254 1.86707 9.55349 1.78683C9.69446 1.70661 9.8434 1.6665 10.0003 1.6665C10.1573 1.6665 10.3062 1.70661 10.4472 1.78683C10.5881 1.86707 10.6933 1.99087 10.7627 2.15824L12.6688 6.6587L17.5788 7.08612C17.769 7.11516 17.919 7.17706 18.0287 7.27181C18.1384 7.36656 18.2225 7.48863 18.2808 7.63803C18.3391 7.78741 18.3492 7.9413 18.311 8.09969C18.2728 8.25806 18.1843 8.39741 18.0454 8.51775L14.3249 11.7255L15.4436 16.4916C15.4908 16.67 15.4797 16.8329 15.4102 16.9802C15.3408 17.1275 15.2422 17.2468 15.1144 17.3381C14.9867 17.4294 14.844 17.4823 14.6863 17.4969C14.5287 17.5114 14.3715 17.473 14.2145 17.3817L10.0003 14.8503Z" fill="#FFC83C"/>
</svg>
