<svg width="18" height="19" viewBox="0 0 18 19" fill="none" xmlns="http://www.w3.org/2000/svg">
<path fill-rule="evenodd" clip-rule="evenodd" d="M7.53198 14.4823C8.01763 14.5583 8.50845 14.5963 9 14.5961C13.142 14.5961 16.5 11.9443 16.5 8.67306C16.5 5.40182 13.142 2.75 9 2.75C4.85796 2.75 1.5 5.40182 1.5 8.67306C1.5 10.7768 2.88886 12.6241 4.98177 13.6749L4.27716 16.3604C4.26739 16.3976 4.26928 16.4369 4.28259 16.473C4.2959 16.5091 4.31997 16.5403 4.35156 16.5623C4.38315 16.5843 4.42073 16.596 4.45921 16.596C4.4977 16.5959 4.53523 16.584 4.56674 16.5619L7.53198 14.4823Z" fill="#6E6E82"/>
</svg>
