<svg width="18" height="18" viewBox="0 0 18 18" fill="none" xmlns="http://www.w3.org/2000/svg">
<path d="M2.11529 17.4998C1.61818 17.4998 1.19262 17.3228 0.838617 16.9688C0.484617 16.6148 0.307617 16.1892 0.307617 15.6921V2.30756C0.307617 1.81044 0.484617 1.38488 0.838617 1.03088C1.19262 0.676867 1.61818 0.499858 2.11529 0.499858H10.0576C10.2701 0.499858 10.4482 0.571767 10.5919 0.715584C10.7357 0.8594 10.8076 1.0376 10.8076 1.25018C10.8076 1.46278 10.7357 1.64088 10.5919 1.78446C10.4482 1.92804 10.2701 1.99983 10.0576 1.99983H2.11529C2.02554 1.99983 1.95182 2.02868 1.89412 2.08638C1.83642 2.14408 1.80757 2.21781 1.80757 2.30756V15.6921C1.80757 15.7819 1.83642 15.8556 1.89412 15.9133C1.95182 15.971 2.02554 15.9998 2.11529 15.9998H15.4999C15.5896 15.9998 15.6633 15.971 15.721 15.9133C15.7787 15.8556 15.8076 15.7819 15.8076 15.6921V7.74981C15.8076 7.53733 15.8795 7.35921 16.0233 7.21546C16.1671 7.07171 16.3453 6.99983 16.5579 6.99983C16.7705 6.99983 16.9486 7.07171 17.0921 7.21546C17.2357 7.35921 17.3075 7.53733 17.3075 7.74981V15.6921C17.3075 16.1892 17.1305 16.6148 16.7765 16.9688C16.4225 17.3228 15.997 17.4998 15.4999 17.4998H2.11529ZM14.1922 3.61518H12.9422C12.7297 3.61518 12.5516 3.54328 12.4078 3.39948C12.2641 3.25567 12.1922 3.07747 12.1922 2.86488C12.1922 2.65228 12.2641 2.47419 12.4078 2.33061C12.5516 2.18703 12.7297 2.11523 12.9422 2.11523H14.1922V0.865208C14.1922 0.652708 14.2641 0.474583 14.4079 0.330833C14.5517 0.1871 14.7299 0.115234 14.9425 0.115234C15.1551 0.115234 15.3332 0.1871 15.4768 0.330833C15.6204 0.474583 15.6922 0.652708 15.6922 0.865208V2.11523H16.9422C17.1547 2.11523 17.3328 2.18713 17.4766 2.33093C17.6203 2.47475 17.6922 2.65295 17.6922 2.86553C17.6922 3.07813 17.6203 3.25623 17.4766 3.39981C17.3328 3.54339 17.1547 3.61518 16.9422 3.61518H15.6922V4.86521C15.6922 5.07771 15.6203 5.25583 15.4765 5.39958C15.3327 5.54332 15.1545 5.61518 14.9419 5.61518C14.7293 5.61518 14.5512 5.54332 14.4076 5.39958C14.264 5.25583 14.1922 5.07771 14.1922 4.86521V3.61518ZM8.03834 13.0191L6.39989 10.9191C6.30631 10.805 6.1874 10.7479 6.04317 10.7479C5.89893 10.7479 5.78003 10.8082 5.68644 10.9287L4.10954 13.0267C3.98903 13.1806 3.97316 13.3396 4.06194 13.5037C4.15073 13.6678 4.2839 13.7498 4.46147 13.7498H13.2306C13.4082 13.7498 13.5413 13.6678 13.6301 13.5037C13.7189 13.3396 13.7062 13.1806 13.5921 13.0267L11.2075 9.83256C11.114 9.71204 10.9935 9.65178 10.846 9.65178C10.6986 9.65178 10.5778 9.71287 10.4838 9.83503L8.03834 13.0191Z" fill="#6E6E82"/>
</svg>
